<svg width="89" height="63" viewBox="0 0 89 63" fill="none" xmlns="http://www.w3.org/2000/svg">
<path d="M26.7054 49.5H53.4031C60.7728 49.5 66.7519 43.4531 66.7519 36H71.2016C81.0185 36 89 27.9281 89 18C89 8.07188 81.0185 0 71.2016 0H16.6938C14.8444 0 13.3566 1.50469 13.3566 3.375V36C13.3566 43.4531 19.3358 49.5 26.7054 49.5ZM71.2016 9C76.11 9 80.1008 13.0359 80.1008 18C80.1008 22.9641 76.11 27 71.2016 27H66.7519V9H71.2016ZM77.8343 63H6.72391C0.10511 63 -1.75816 54 1.71809 54H82.8262C86.3024 54 84.467 63 77.8343 63Z" fill="#E19367"/>
</svg>
