<svg width="91" height="91" viewBox="0 0 91 91" fill="none" xmlns="http://www.w3.org/2000/svg">
<path d="M36.3098 0.894915C18.6426 4.34302 4.40575 18.5442 0.922071 36.158C-5.65426 69.3948 24.3302 94.1714 46.9208 90.67C54.2437 89.5324 57.834 80.9655 54.4747 74.3715C50.3689 66.3022 56.2343 56.8821 65.299 56.8821H79.4648C85.8278 56.8821 90.9822 51.6211 91 45.2759C90.9111 17.2645 65.4234 -4.7749 36.3098 0.894915ZM17.0607 56.8821C13.9148 56.8821 11.3731 54.3405 11.3731 51.1945C11.3731 48.0486 13.9148 45.5069 17.0607 45.5069C20.2067 45.5069 22.7484 48.0486 22.7484 51.1945C22.7484 54.3405 20.2067 56.8821 17.0607 56.8821ZM22.7484 34.1318C19.6024 34.1318 17.0607 31.5901 17.0607 28.4442C17.0607 25.2982 19.6024 22.7566 22.7484 22.7566C25.8943 22.7566 28.436 25.2982 28.436 28.4442C28.436 31.5901 25.8943 34.1318 22.7484 34.1318ZM45.4989 22.7566C42.3529 22.7566 39.8113 20.2149 39.8113 17.069C39.8113 13.9231 42.3529 11.3814 45.4989 11.3814C48.6449 11.3814 51.1866 13.9231 51.1866 17.069C51.1866 20.2149 48.6449 22.7566 45.4989 22.7566ZM68.2495 34.1318C65.1035 34.1318 62.5618 31.5901 62.5618 28.4442C62.5618 25.2982 65.1035 22.7566 68.2495 22.7566C71.3954 22.7566 73.9371 25.2982 73.9371 28.4442C73.9371 31.5901 71.3954 34.1318 68.2495 34.1318Z" fill="#E19367"/>
</svg>
