<svg width="101" height="101" viewBox="0 0 101 101" fill="none" xmlns="http://www.w3.org/2000/svg">
<path d="M98.9366 12.0149C102.334 8.61788 101.404 2.89109 97.1079 0.742808C95.9386 0.158396 94.6296 -0.0889519 93.3277 0.0284629C92.0257 0.145878 90.7821 0.623419 89.7361 1.40761L49.5314 31.5625H79.3915L98.9366 12.0149ZM97.8438 37.8752H3.15625C1.41242 37.8752 0 39.2876 0 41.0315V47.3442C0 49.0881 1.41242 50.5005 3.15625 50.5005H6.3125C6.3125 66.4756 16.2152 80.1129 30.2073 85.6779C27.6902 89.0059 25.9227 92.9375 25.2855 97.2558C24.9975 99.2127 26.477 101 28.4556 101H72.5444C74.523 101 76.0025 99.2127 75.7145 97.2558C75.0793 92.9375 73.3118 89.0059 70.7927 85.6779C84.7848 80.1129 94.6875 66.4756 94.6875 50.5005H97.8438C99.5876 50.5005 101 49.0881 101 47.3442V41.0315C101 39.2876 99.5876 37.8752 97.8438 37.8752Z" fill="#E19367"/>
</svg>
